PathFileType	4	(X/Y/Z)	C:\Users\italobelli\Desktop\GitHub\PTbot_officialCBL\Personal_Results\ABD21_noisy2.trc
DataRate	CameraRate	NumFrames	NumMarkers	Units	OrigDataRate	OrigDataStartFrame	OrigNumFrames
106.533333	106.533333	16	9	m	106.533333	201	800
Frame#	Time		gu		centelbow		EpL		centpxt8		centijc7		ij		ts		aa		ai
			X1	Y1	Z1	X2	Y2	Z2	X3	Y3	Z3	X4	Y4	Z4	X5	Y5	Z5	X6	Y6	Z6	X7	Y7	Z7	X8	Y8	Z8	X9	Y9	Z9

201	1.8773	-0.088668	0.037593	0.1411	-0.09252	-0.039962	0.3728	-0.10516	-0.011102	0.37915	-0.046816	-0.15316	-0.008669	-0.046816	0.031938	-0.008669	0	0	0	-0.12988	0.0087167	0.027849	-0.12612	0.054208	0.13765	-0.12696	-0.093454	0.075385
202	1.8867	-0.088633	0.03825	0.14094	-0.09174	-0.036158	0.37376	-0.10443	-0.0072284	0.37972	-0.046816	-0.15316	-0.008669	-0.046816	0.031938	-0.008669	0	0	0	-0.13002	0.0083833	0.027951	-0.12619	0.054614	0.13749	-0.12695	-0.093489	0.076233
203	1.8961	-0.088599	0.038895	0.14078	-0.090987	-0.032373	0.37465	-0.10373	-0.0033792	0.38022	-0.046816	-0.15316	-0.008669	-0.046816	0.031938	-0.008669	0	0	0	-0.13015	0.0080513	0.028053	-0.12627	0.055016	0.13733	-0.12696	-0.093524	0.077074
204	1.9055	-0.088566	0.039526	0.14061	-0.090262	-0.02861	0.37547	-0.10305	0.000442	0.38066	-0.046816	-0.15316	-0.008669	-0.046816	0.031938	-0.008669	0	0	0	-0.13027	0.0077212	0.028156	-0.12634	0.055414	0.13717	-0.12696	-0.093558	0.077907
205	1.9149	-0.088536	0.040144	0.14044	-0.089568	-0.024872	0.3762	-0.10241	0.0042324	0.38102	-0.046816	-0.15316	-0.008669	-0.046816	0.031938	-0.008669	0	0	0	-0.1304	0.0073932	0.028258	-0.12641	0.055809	0.13699	-0.12698	-0.09359	0.07873
206	1.9243	-0.088508	0.040747	0.14026	-0.088907	-0.021161	0.37686	-0.1018	0.0079891	0.3813	-0.046816	-0.15316	-0.008669	-0.046816	0.031938	-0.008669	0	0	0	-0.13052	0.0070676	0.028359	-0.12649	0.0562	0.13682	-0.127	-0.093622	0.079543
207	1.9337	-0.088482	0.041335	0.14008	-0.08828	-0.017481	0.37744	-0.10123	0.011709	0.38151	-0.046816	-0.15316	-0.008669	-0.046816	0.031938	-0.008669	0	0	0	-0.13063	0.0067449	0.028461	-0.12656	0.056587	0.13663	-0.12703	-0.093653	0.080345
208	1.9431	-0.088458	0.041908	0.13988	-0.087689	-0.013835	0.37793	-0.10069	0.015389	0.38163	-0.046816	-0.15316	-0.008669	-0.046816	0.031938	-0.008669	0	0	0	-0.13075	0.0064252	0.028561	-0.12664	0.056969	0.13644	-0.12706	-0.093683	0.081135
209	1.9524	-0.088437	0.042463	0.13969	-0.087136	-0.010224	0.37834	-0.1002	0.019027	0.38168	-0.046816	-0.15316	-0.008669	-0.046816	0.031938	-0.008669	0	0	0	-0.13085	0.006109	0.028661	-0.12672	0.057348	0.13624	-0.12711	-0.093711	0.081911
210	1.9618	-0.088418	0.043002	0.13949	-0.086624	-0.0066524	0.37865	-0.099746	0.02262	0.38164	-0.046816	-0.15316	-0.008669	-0.046816	0.031938	-0.008669	0	0	0	-0.13096	0.0057965	0.02876	-0.1268	0.057721	0.13603	-0.12716	-0.093739	0.082672
211	1.9712	-0.088402	0.043523	0.13928	-0.086153	-0.0031225	0.37887	-0.099336	0.026164	0.38151	-0.046816	-0.15316	-0.008669	-0.046816	0.031938	-0.008669	0	0	0	-0.13105	0.005488	0.028859	-0.12688	0.05809	0.13582	-0.12721	-0.093765	0.083418
212	1.9806	-0.088389	0.044025	0.13906	-0.085726	0.00036278	0.379	-0.098972	0.029656	0.38129	-0.046816	-0.15316	-0.008669	-0.046816	0.031938	-0.008669	0	0	0	-0.13115	0.005184	0.028956	-0.12696	0.058453	0.13559	-0.12728	-0.09379	0.084148
213	1.99	-0.088379	0.044508	0.13884	-0.085344	0.0038006	0.37903	-0.098656	0.033095	0.38098	-0.046816	-0.15316	-0.008669	-0.046816	0.031938	-0.008669	0	0	0	-0.13123	0.0048847	0.029051	-0.12705	0.058812	0.13536	-0.12735	-0.093814	0.084861
214	1.9994	-0.088371	0.044971	0.13861	-0.085011	0.0071882	0.37896	-0.09839	0.036476	0.38058	-0.046816	-0.15316	-0.008669	-0.046816	0.031938	-0.008669	0	0	0	-0.13131	0.0045904	0.029146	-0.12713	0.059166	0.13512	-0.12743	-0.093837	0.085554
215	2.0088	-0.088371	0.045421	0.13836	-0.08471	0.010562	0.3788	-0.098158	0.039836	0.38009	-0.046816	-0.15316	-0.008669	-0.046816	0.031938	-0.008669	0	0	0	-0.13139	0.0042975	0.029239	-0.12722	0.059515	0.13487	-0.12752	-0.093854	0.086238
216	2.0181	-0.088381	0.04587	0.13809	-0.084423	0.013969	0.37856	-0.097939	0.043226	0.37951	-0.046816	-0.15316	-0.008669	-0.046816	0.031938	-0.008669	0	0	0	-0.13147	0.0040008	0.029333	-0.12732	0.059864	0.13461	-0.12762	-0.093861	0.086922
